<svg xmlns="http://www.w3.org/2000/svg" width="150" height="50" viewBox="0,0,150,50"><path d="M7 18 C73 25,84 3,130 13" stroke="#222" fill="none"/><path d="M6 13 C54 35,64 24,147 47" stroke="#111" fill="none"/><path fill="#444" d="M76.94 19.21L76.81 19.08L76.88 19.16Q78.06 23.68 78.21 26.88L78.23 26.90L78.24 26.91Q78.60 26.81 82.98 26.93L83.08 27.03L83.11 27.06Q85.58 27.02 85.96 23.55L86.02 23.62L85.97 23.56Q86.20 21.85 85.29 20.94L85.27 20.92L85.19 20.84Q83.93 19.97 81.95 19.81L82.09 19.95L82.01 19.87Q78.80 19.66 76.93 19.21ZM78.39 28.89L78.29 28.79L78.26 28.76Q78.54 34.86 76.75 40.80L76.67 40.72L76.78 40.83Q75.47 41.08 72.88 42.11L72.93 42.16L72.85 42.08Q75.75 35.65 75.40 28.18L75.43 28.21L75.31 28.09Q75.07 20.81 71.75 14.30L71.78 14.32L71.77 14.32Q76.65 17.13 83.61 17.13L83.61 17.13L83.60 17.12Q89.14 17.02 89.40 20.56L89.50 20.66L89.55 20.71Q89.51 21.21 89.44 21.81L89.41 21.79L89.29 22.89L89.39 22.99Q88.62 26.98 86.49 28.69L86.41 28.61L86.37 28.57Q85.72 29.40 84.69 29.40L84.54 29.25L81.92 29.22L82.02 29.32Q87.64 36.57 92.17 41.14L92.05 41.02L92.07 41.04Q90.01 40.43 87.08 40.09L87.05 40.06L86.91 39.92Q83.32 36.14 78.41 28.91ZM86.94 40.45L86.83 40.33L87.14 40.34L88.49 41.69L88.41 41.61Q89.00 42.16 89.65 42.77L89.67 42.79L89.72 42.84Q93.19 43.38 96.77 45.25L96.83 45.31L96.81 45.29Q89.91 38.58 84.50 31.65L84.40 31.55L86.28 31.68L86.22 31.62Q89.24 31.55 90.57 27.02L90.65 27.10L90.52 26.97Q91.23 24.79 91.23 22.08L91.25 22.10L91.30 22.16Q91.27 19.84 89.56 19.19L89.63 19.27L89.50 19.14Q89.40 18.77 88.83 18.09L88.89 18.15L88.94 18.19Q87.22 16.71 83.57 16.63L83.60 16.67L83.57 16.64Q75.61 16.40 70.93 13.39L71.05 13.51L71.10 13.56Q74.82 20.37 75.17 28.06L75.08 27.97L75.08 27.98Q75.42 35.93 72.30 42.78L72.35 42.83L72.22 42.70Q73.50 42.16 74.30 41.85L74.33 41.88L73.44 44.27L73.34 44.17Q76.00 43.06 78.67 42.56L78.68 42.57L78.70 42.60Q80.03 37.54 80.22 32.32L80.26 32.35L80.20 32.30Q83.65 37.19 86.81 40.32ZM85.63 22.46L85.64 22.47L85.68 22.51Q85.58 22.64 85.58 22.98L85.72 23.12L85.69 23.66L85.62 23.60Q85.56 24.63 84.87 25.59L85.02 25.73L85.04 25.75Q84.28 26.37 83.37 26.56L83.50 26.69L83.45 26.64Q83.23 26.69 81.64 26.73L81.72 26.81L81.57 26.66Q81.06 26.77 80.23 26.65L80.19 26.61L80.18 26.61Q80.04 25.05 79.69 22.01L79.69 22.01L79.77 22.08Q81.15 22.25 81.84 22.25L81.90 22.31L81.93 22.34Q83.76 22.34 85.70 22.53Z"/><path fill="#333" d="M36.16 40.42L35.99 40.25L36.12 40.38Q34.64 40.38 33.08 39.97L33.06 39.95L33.13 40.02Q31.85 39.04 31.70 37.40L31.82 37.53L31.71 37.42Q31.80 37.35 31.99 34.73L31.93 34.67L31.82 34.56Q33.02 34.54 35.04 34.16L35.03 34.15L34.67 34.74L34.75 34.82Q34.49 36.58 35.90 37.15L35.97 37.22L35.92 37.17Q36.75 37.55 38.84 37.55L38.79 37.49L38.87 37.58Q40.39 37.34 40.58 37.26L40.60 37.28L40.48 37.16Q41.56 37.18 42.29 36.69L42.15 36.55L42.17 36.57Q43.54 35.58 43.35 33.49L43.46 33.60L43.41 33.55Q43.19 31.08 41.45 29.52L41.42 29.48L41.52 29.59Q39.79 28.02 37.31 28.02L37.37 28.08L37.24 27.72L37.32 27.80Q37.73 27.79 38.61 27.72L38.56 27.67L38.64 27.75Q40.41 27.50 41.78 26.26L41.87 26.36L41.92 26.41Q43.17 25.05 43.32 23.18L43.32 23.18L43.26 23.12Q43.40 22.84 43.40 22.49L43.38 22.48L43.45 22.55Q43.51 21.08 42.14 20.17L42.00 20.03L42.03 20.06Q40.74 19.19 39.14 19.31L39.33 19.50L39.18 19.34Q37.90 19.21 36.68 19.63L36.75 19.70L36.74 19.69Q35.26 20.18 34.96 21.32L34.97 21.34L34.90 21.27Q34.86 22.18 34.94 22.95L34.95 22.96L34.79 22.80Q33.83 22.63 31.77 21.91L31.84 21.97L31.74 21.87Q31.47 20.16 31.50 19.32L31.53 19.35L31.60 19.41Q31.70 17.88 32.77 17.19L32.76 17.19L32.82 17.25Q34.16 16.57 35.76 16.57L35.82 16.63L35.86 16.68Q38.90 16.51 42.06 16.78L42.13 16.85L42.20 16.91Q47.14 17.21 46.83 20.98L46.83 20.97L46.95 21.10Q46.73 22.44 46.24 24.00L46.27 24.04L46.37 24.14Q45.31 27.08 42.95 27.99L43.04 28.07L43.08 28.12Q45.58 28.53 46.19 31.88L46.26 31.95L46.22 31.90Q46.45 33.05 46.53 35.07L46.63 35.17L46.55 35.09Q46.75 39.59 42.14 40.05L42.17 40.07L42.12 40.02Q41.32 40.03 36.03 40.29ZM41.21 42.50L41.28 42.57L41.31 42.60Q41.99 42.71 44.84 42.79L44.85 42.79L44.73 42.67Q46.55 42.81 48.18 42.17L48.07 42.06L48.12 42.10Q49.23 41.08 49.04 39.33L49.22 39.51L49.16 39.45Q49.00 38.07 48.69 36.32L48.65 36.28L48.82 36.44Q47.92 31.78 45.98 30.14L46.09 30.26L45.95 29.92L45.84 29.77L45.91 29.84Q47.61 28.35 48.37 23.97L48.37 23.97L48.42 24.01Q48.45 23.55 48.56 22.60L48.42 22.45L48.55 22.58Q48.60 21.80 48.53 21.11L48.59 21.18L48.56 21.15Q48.28 19.34 46.98 18.66L47.13 18.80L46.91 18.66L47.01 18.76Q46.74 17.80 45.60 17.27L45.42 17.10L45.45 17.13Q43.94 16.45 38.80 16.15L38.93 16.28L38.76 16.11Q37.15 16.10 35.55 16.10L35.55 16.09L35.55 16.09Q33.92 16.06 32.40 16.71L32.37 16.68L32.53 16.85Q31.25 17.54 31.25 19.29L31.33 19.37L31.32 19.37Q31.26 18.89 31.53 22.24L31.59 22.30L31.52 22.23Q31.75 22.23 33.38 22.84L33.47 22.92L33.55 23.00Q33.35 23.34 33.32 23.83L33.42 23.94L33.42 23.94Q33.44 24.46 33.48 24.99L33.46 24.97L33.50 25.00Q35.34 25.44 37.36 25.55L37.17 25.37L37.29 25.48Q37.22 23.48 38.33 22.64L38.21 22.53L38.37 22.68Q39.14 21.97 41.15 21.74L41.19 21.78L41.18 21.77Q42.28 21.72 42.85 21.91L42.78 21.84L42.91 21.97Q42.92 22.05 42.96 22.17L42.95 22.17L42.89 22.29L42.98 22.84L42.98 22.83Q43.14 23.19 43.10 23.34L42.94 23.18L42.98 23.22Q42.89 24.91 41.36 26.09L41.35 26.09L41.36 26.09Q40.42 26.98 38.40 27.17L38.38 27.15L38.54 27.31Q37.75 27.40 36.88 27.40L36.95 27.47L36.82 27.34Q36.82 27.64 36.97 28.33L37.08 28.43L37.14 28.49Q38.73 28.33 40.17 29.05L40.32 29.21L40.16 29.15L38.61 29.36L38.63 29.38Q38.59 29.64 38.71 30.25L38.83 30.38L38.68 30.22Q40.85 30.19 42.56 31.52L42.54 31.49L42.69 31.65Q42.82 31.93 43.12 33.56L43.12 33.56L43.08 33.53Q43.23 36.41 40.29 36.83L40.42 36.96L40.42 36.95Q38.20 37.09 37.63 37.06L37.72 37.15L37.79 37.22Q37.30 37.07 36.76 36.99L36.72 36.95L36.79 36.56L36.83 36.03L36.96 35.74L36.91 35.34L36.86 35.30Q35.97 35.44 35.17 35.63L35.13 35.58L35.26 35.71Q35.16 35.43 35.16 35.24L35.08 35.15L35.07 35.15Q35.14 34.99 35.14 34.76L35.20 34.82L35.25 34.87Q35.24 34.40 35.40 33.68L35.38 33.67L35.30 33.58Q33.52 33.90 31.66 34.24L31.67 34.26L31.66 34.25Q31.64 34.72 31.53 35.84L31.54 35.85L31.45 35.77Q31.48 37.04 31.48 37.65L31.47 37.63L31.32 37.49Q31.38 39.53 32.75 40.29L32.94 40.47L32.85 40.39Q34.37 42.70 39.09 42.51L39.12 42.55L39.00 42.42Q39.74 42.40 41.26 42.55Z"/><path fill="#444" d="M17.57 29.88L17.63 29.94L17.63 29.94Q17.35 29.88 17.04 29.88L16.98 29.82L16.93 29.77Q15.62 29.79 14.17 30.63L14.17 30.63L14.20 30.66Q12.86 31.75 12.86 33.66L12.79 33.59L12.81 33.61Q12.93 37.15 14.45 38.48L14.49 38.52L14.33 38.36Q15.34 39.60 17.62 39.60L17.56 39.54L17.72 39.69Q17.93 39.68 18.23 39.68L18.15 39.60L18.24 39.69Q19.85 39.58 20.99 37.94L21.08 38.03L21.14 38.09Q22.13 36.53 22.05 34.74L22.05 34.73L21.99 34.68Q22.04 34.20 22.04 33.78L22.19 33.93L22.13 33.87Q22.09 32.04 20.72 30.88L20.73 30.89L20.69 30.84Q19.33 29.70 17.54 29.85ZM21.98 39.96L21.99 39.97L21.97 39.95Q21.11 42.03 17.38 42.14L17.37 42.13L17.28 42.04Q13.94 42.20 12.34 40.60L12.21 40.47L12.24 40.50Q10.77 38.73 9.97 33.93L9.97 33.93L10.13 34.08Q9.83 32.34 9.83 31.08L9.77 31.02L9.80 31.05Q9.80 29.27 10.52 28.20L10.51 28.19L10.47 28.15Q11.92 26.85 14.89 26.85L14.82 26.79L14.88 26.84Q21.17 26.82 23.07 29.40L23.12 29.45L22.95 29.28Q23.24 28.58 23.66 26.98L23.58 26.90L23.62 26.94Q24.88 26.64 27.32 25.84L27.34 25.87L27.36 25.89Q24.83 31.43 24.60 37.75L24.66 37.80L24.67 37.82Q24.39 43.93 26.52 49.76L26.52 49.75L26.64 49.87Q24.79 49.12 23.00 48.86L23.05 48.91L23.13 48.99Q22.18 45.00 22.07 40.05ZM22.84 49.27L22.87 49.31L22.75 49.18Q23.62 49.48 25.03 49.78L25.01 49.76L25.01 49.77Q25.19 50.45 25.76 51.85L25.76 51.85L25.72 51.81Q28.42 52.64 30.70 53.93L30.61 53.85L30.59 53.83Q26.51 47.19 26.51 38.66L26.52 38.67L26.49 38.64Q26.50 32.30 28.98 26.51L29.09 26.63L29.09 26.63Q28.35 26.88 26.98 27.52L26.96 27.51L26.92 27.47Q27.25 26.69 27.90 25.13L27.97 25.20L28.00 25.23Q26.46 25.79 23.26 26.66L23.15 26.55L23.26 26.66Q23.18 27.26 22.87 28.44L22.85 28.42L22.79 28.36Q20.79 26.48 14.66 26.32L14.68 26.34L14.61 26.27Q11.43 26.22 10.06 27.70L10.06 27.70L10.15 27.79Q9.31 28.85 9.34 30.75L9.45 30.86L9.39 30.80Q9.55 33.85 10.54 37.62L10.46 37.54L10.40 37.48Q11.20 40.03 12.12 40.98L11.96 40.83L12.41 41.28L12.46 41.33Q13.68 44.15 19.13 44.38L19.03 44.28L19.09 44.34Q20.16 44.42 21.99 44.12L21.87 44.00L21.86 43.99Q22.20 46.96 22.81 49.24ZM19.47 32.19L19.43 32.15L19.44 32.17Q20.56 32.22 21.40 32.53L21.42 32.54L21.46 32.59Q21.57 33.05 21.69 33.65L21.77 33.74L21.69 33.65Q21.81 34.23 21.73 34.84L21.58 34.69L21.66 34.77Q21.74 36.75 20.71 38.05L20.61 37.94L20.62 37.95Q19.46 39.38 17.59 39.19L17.54 39.14L17.57 39.17Q16.30 39.19 15.35 38.77L15.34 38.76L15.36 38.79Q15.10 38.06 15.10 36.85L15.12 36.87L15.08 36.83Q14.96 36.40 14.96 36.10L15.03 36.17L15.10 36.24Q15.08 34.47 16.41 33.31L16.42 33.31L16.39 33.28Q17.73 32.13 19.48 32.21Z"/><path fill="#333" d="M130.59 28.71L130.54 28.67L124.72 28.82L124.60 28.70Q121.80 28.87 118.87 28.80L118.85 28.77L118.89 28.82Q118.90 35.41 116.85 40.93L116.95 41.04L116.80 40.89Q114.97 41.38 113.22 42.07L113.25 42.09L113.23 42.08Q116.15 36.51 116.15 29.85L116.15 29.85L116.06 29.75Q116.05 21.25 111.94 14.21L112.00 14.28L111.93 14.20Q113.53 15.08 116.01 15.88L115.89 15.76L115.92 15.79Q117.99 20.80 118.53 25.67L118.53 25.68L118.66 25.81Q121.90 26.27 124.76 26.23L124.68 26.16L124.59 26.06Q127.24 26.05 130.55 25.78L130.66 25.89L130.61 25.84Q131.19 21.54 132.94 16.44L132.86 16.36L132.79 16.30Q134.69 15.84 136.94 15.00L137.11 15.18L137.11 15.17Q133.34 21.75 133.34 29.71L133.43 29.80L133.41 29.79Q133.42 36.00 135.78 41.33L135.78 41.33L135.78 41.33Q134.17 40.71 132.12 40.40L132.09 40.38L132.10 40.39Q130.37 35.31 130.49 28.61ZM131.77 40.66L131.86 40.75L131.86 40.76Q132.99 41.01 134.09 41.28L134.02 41.21L134.06 41.24Q134.41 41.98 135.06 43.46L134.96 43.36L135.08 43.48Q138.27 44.27 140.06 45.19L140.17 45.30L140.19 45.32Q135.76 39.17 135.45 30.91L135.43 30.89L135.33 30.79Q135.02 22.75 138.67 15.94L138.72 15.99L137.67 16.46L137.66 16.44Q137.23 16.74 136.62 16.89L136.51 16.78L136.55 16.82Q136.97 16.02 137.81 14.46L137.72 14.37L137.89 14.54Q135.12 15.46 132.49 15.96L132.59 16.06L132.54 16.01Q130.89 20.86 130.43 25.54L130.42 25.53L130.43 25.54Q127.97 25.79 125.53 25.79L125.43 25.69L125.43 25.68Q123.04 25.69 120.53 25.54L120.50 25.51L120.46 25.48Q120.29 22.25 119.18 18.18L119.19 18.19L119.20 18.20Q118.56 18.13 117.11 17.75L117.14 17.78L117.13 17.77Q116.79 16.59 116.33 15.56L116.29 15.52L116.17 15.39Q113.48 14.69 111.20 13.43L111.32 13.56L111.13 13.37Q115.73 20.82 115.73 29.61L115.90 29.78L115.77 29.66Q115.85 36.70 112.73 42.83L112.73 42.83L112.62 42.72Q113.47 42.58 114.80 42.01L114.81 42.02L114.69 41.90Q114.29 42.68 113.49 44.20L113.52 44.23L113.65 44.36Q116.33 43.23 118.58 42.82L118.60 42.84L118.74 42.98Q120.61 37.43 120.80 31.26L120.72 31.18L120.68 31.14Q122.28 31.07 125.48 31.03L125.45 31.00L125.51 31.05Q128.31 30.96 130.21 31.04L130.36 31.19L130.20 31.03Q130.60 36.91 131.93 40.83Z"/><path fill="#222" d="M102.62 40.31L102.57 40.26L102.56 40.26Q99.12 40.39 97.48 39.85L97.50 39.88L97.39 39.76Q95.48 39.19 95.18 35.80L95.13 35.75L96.68 34.79L96.54 34.65Q97.37 34.23 98.14 33.73L98.12 33.72L98.10 33.70Q97.90 35.67 99.50 36.89L99.34 36.73L99.35 36.74Q100.78 37.90 102.91 37.71L102.93 37.73L102.75 37.55Q107.25 37.25 107.06 33.71L106.96 33.61L106.95 33.61Q106.84 31.40 104.21 30.18L104.25 30.21L104.23 30.20Q101.33 29.08 98.97 27.87L99.09 27.99L99.08 27.98Q96.53 26.65 95.54 21.97L95.44 21.87L95.45 21.87Q95.35 21.43 95.23 20.67L95.23 20.67L95.35 20.79Q95.23 19.98 95.31 19.41L95.18 19.28L95.20 19.30Q95.50 17.85 96.76 17.40L96.76 17.40L96.59 17.23Q99.05 16.41 103.04 16.60L103.12 16.67L103.10 16.65Q104.83 16.68 105.63 16.75L105.76 16.88L105.64 16.76Q107.21 17.03 108.27 17.49L108.21 17.42L108.25 17.47Q110.34 17.92 110.57 20.39L110.51 20.33L110.63 20.46Q109.59 21.17 107.39 22.50L107.35 22.46L107.40 22.52Q106.91 19.44 102.53 19.44L102.60 19.51L102.47 19.37Q100.59 19.40 99.60 20.09L99.57 20.05L99.57 20.05Q98.47 20.63 98.70 22.42L98.75 22.47L98.74 22.46Q98.86 24.52 101.83 26.04L101.90 26.12L101.97 26.19Q102.42 26.33 106.91 27.97L107.02 28.07L106.94 28.00Q109.57 29.48 109.99 33.86L110.04 33.92L110.08 33.95Q109.96 33.98 110.03 35.24L110.06 35.26L110.11 35.31Q110.05 37.96 108.49 39.07L108.68 39.25L108.66 39.23Q106.66 40.05 102.47 40.16ZM104.77 42.53L104.85 42.62L104.80 42.56Q106.32 42.72 108.30 42.72L108.21 42.63L108.20 42.62Q110.42 42.74 111.67 42.32L111.59 42.24L111.69 42.34Q112.76 41.35 112.68 39.56L112.71 39.59L112.71 39.59Q112.78 38.71 112.40 36.66L112.30 36.56L112.28 36.53Q111.46 31.95 109.37 30.08L109.41 30.12L109.44 30.16Q108.59 28.51 107.26 27.78L107.29 27.81L101.87 25.63L101.94 25.70Q101.63 25.54 101.17 25.31L101.21 25.35L101.02 24.90L101.09 24.62L101.10 24.63Q100.80 23.08 101.95 22.47L102.09 22.62L101.93 22.46Q102.70 21.89 104.41 21.70L104.44 21.73L104.45 21.74Q105.57 21.60 106.71 22.05L106.84 22.19L106.70 22.05Q106.93 22.31 107.12 23.15L106.98 23.01L107.04 23.07Q107.31 23.00 107.81 22.77L107.75 22.71L107.62 22.59Q108.39 23.55 108.51 24.69L108.63 24.81L108.45 24.64Q108.66 24.73 112.32 22.14L112.34 22.16L112.21 22.03Q111.93 19.39 110.48 18.71L110.57 18.80L110.61 18.84Q110.09 17.63 108.64 17.10L108.48 16.93L108.46 16.92Q106.36 16.30 103.16 16.30L103.13 16.27L103.09 16.23Q98.07 16.12 96.21 16.81L96.21 16.81L96.24 16.84Q94.98 17.37 94.86 19.04L94.80 18.98L94.93 19.11Q94.75 19.49 95.16 21.70L95.16 21.70L95.26 21.80Q95.86 25.48 98.03 27.73L98.01 27.71L98.07 27.76Q98.89 29.50 100.39 30.18L100.44 30.24L100.44 30.23Q101.90 30.87 105.82 32.43L105.87 32.48L105.68 32.33L106.40 32.75L106.57 32.95L106.45 32.84Q106.70 33.35 106.74 33.69L106.71 33.66L106.66 33.62Q106.77 37.11 102.85 37.26L102.75 37.17L102.82 37.24Q101.59 37.19 100.30 36.81L100.46 36.97L100.40 36.92Q100.09 36.10 100.09 35.38L100.08 35.37L100.15 35.45Q100.00 35.02 100.03 34.76L100.04 34.77L100.02 34.74Q99.74 35.11 98.94 35.61L98.89 35.55L98.86 35.52Q98.38 34.44 98.53 33.07L98.46 32.99L98.46 33.00Q96.41 34.22 94.81 35.63L94.76 35.57L94.88 35.70Q94.88 36.45 94.95 37.48L95.02 37.55L94.91 37.43Q95.38 39.32 96.68 40.08L96.52 39.92L96.64 40.04Q97.81 41.82 100.36 42.21L100.43 42.27L100.31 42.15Q102.01 42.52 104.94 42.71Z"/><path fill="#222" d="M59.63 28.55L59.64 28.56L59.73 28.65Q56.90 28.64 56.14 30.88L56.18 30.92L56.19 30.93Q55.96 31.66 55.85 32.31L55.87 32.33L55.84 32.30Q58.39 32.45 60.03 32.45L60.08 32.50L59.97 32.39Q61.72 32.50 64.31 32.39L64.36 32.44L64.36 32.44Q64.16 30.65 62.75 29.58L62.69 29.51L62.66 29.49Q61.52 28.65 59.73 28.65ZM59.72 41.12L59.78 41.18L59.74 41.14Q55.52 41.15 54.22 39.74L54.21 39.72L54.33 39.85Q53.21 38.24 53.06 34.96L53.15 35.05L53.11 35.01Q53.20 34.87 53.12 33.50L53.08 33.46L53.01 33.38Q52.91 31.12 52.91 30.39L52.89 30.38L53.00 30.48Q52.90 28.52 53.62 27.41L53.62 27.41L53.61 27.40Q55.09 26.06 58.06 26.06L58.03 26.03L59.65 26.09L59.66 26.10Q61.55 25.94 63.07 26.25L63.23 26.40L63.09 26.26Q65.26 26.83 66.25 28.05L66.13 27.93L66.24 28.04Q66.79 29.05 66.87 31.14L66.83 31.11L66.87 31.14Q66.82 32.24 66.86 34.41L67.02 34.56L67.02 34.57Q64.13 34.57 61.35 34.57L61.24 34.46L55.66 34.48L55.79 34.61Q55.76 38.85 59.84 38.62L59.94 38.72L59.89 38.67Q63.70 38.52 64.91 36.69L64.99 36.77L64.89 36.66Q65.82 37.25 67.42 38.43L67.48 38.49L67.49 38.50Q66.07 40.86 61.92 41.12L61.92 41.12L61.89 41.09Q61.05 41.01 59.68 41.08ZM62.03 43.48L62.03 43.47L62.04 43.49Q63.17 43.47 64.39 43.55L64.32 43.48L64.33 43.49Q69.37 43.74 70.29 40.96L70.30 40.97L70.33 41.00Q68.77 39.83 67.67 39.06L67.59 38.98L67.49 38.89Q67.71 38.53 67.90 38.30L67.83 38.24L67.95 38.35Q67.13 37.80 65.75 36.84L65.86 36.95L65.83 36.92Q66.81 36.87 68.86 37.17L68.95 37.26L68.86 37.17Q68.88 36.01 68.81 35.33L68.71 35.23L68.54 33.27L68.67 33.40Q68.40 30.92 67.75 29.43L67.78 29.46L67.71 29.40Q67.53 29.14 66.96 28.53L66.85 28.42L66.92 28.49Q66.72 28.14 66.49 27.56L66.65 27.72L66.49 27.56Q64.68 25.60 59.62 25.60L59.61 25.59L57.90 25.56L57.90 25.56Q54.67 25.57 53.22 27.05L53.13 26.96L53.30 27.13Q52.49 28.11 52.53 30.16L52.64 30.27L52.60 30.24Q52.56 31.11 52.68 33.36L52.80 33.48L52.83 33.51Q52.91 35.11 53.02 37.17L53.05 37.20L53.03 37.18Q53.29 39.42 54.17 40.49L54.12 40.43L54.12 40.44Q54.32 40.63 54.51 40.75L54.40 40.64L54.75 41.33L54.71 41.29Q55.45 43.10 62.04 43.48ZM59.99 38.35L59.96 38.32L59.99 38.35Q58.74 38.36 57.83 37.90L57.82 37.90L57.78 37.85Q57.92 37.65 57.73 36.96L57.58 36.82L57.68 36.91Q59.35 36.80 60.95 36.80L60.94 36.78L60.83 36.68Q62.57 36.74 64.24 36.85L64.36 36.97L64.20 36.81Q63.01 38.25 60.00 38.36ZM61.55 30.93L61.59 30.97L61.69 31.06Q62.34 31.11 63.67 31.49L63.58 31.39L63.77 31.78L63.70 31.89L63.67 31.87Q62.35 32.03 61.43 31.99L61.52 32.07L61.46 32.01Q59.30 32.10 59.26 32.10L59.25 32.09L59.17 32.01Q59.96 31.13 61.64 31.01Z"/></svg>